<svg width="24" height="24" viewBox="0 0 24 24" fill="none" xmlns="http://www.w3.org/2000/svg">
<path opacity="0.25" fill-rule="evenodd" clip-rule="evenodd" d="M2.36899 6.54184C2.65912 4.34504 4.34504 2.65912 6.54184 2.36899C8.05208 2.16953 9.94127 2 12 2C14.0587 2 15.9479 2.16953 17.4582 2.36899C19.655 2.65912 21.3409 4.34504 21.631 6.54184C21.8305 8.05208 22 9.94127 22 12C22 14.0587 21.8305 15.9479 21.631 17.4582C21.3409 19.655 19.655 21.3409 17.4582 21.631C15.9479 21.8305 14.0587 22 12 22C9.94127 22 8.05208 21.8305 6.54184 21.631C4.34504 21.3409 2.65912 19.655 2.36899 17.4582C2.16953 15.9479 2 14.0587 2 12C2 9.94127 2.16953 8.05208 2.36899 6.54184Z" fill="#12131A"/>
<path fill-rule="evenodd" clip-rule="evenodd" d="M14.2071 7.79289C14.5976 8.18342 14.5976 8.81658 14.2071 9.20711L11.4142 12L14.2071 14.7929C14.5976 15.1834 14.5976 15.8166 14.2071 16.2071C13.8166 16.5976 13.1834 16.5976 12.7929 16.2071L9.29289 12.7071C8.90237 12.3166 8.90237 11.6834 9.29289 11.2929L12.7929 7.79289C13.1834 7.40237 13.8166 7.40237 14.2071 7.79289Z" fill="#12131A"/>
</svg>
